<svg xmlns="http://www.w3.org/2000/svg" width="128" height="128" viewBox="0 0 17 16"><path fill="#0284c7" fill-rule="evenodd" d="M13.492 9.019a3.47 3.47 0 1 0 .001 6.94a3.47 3.47 0 0 0-.001-6.94m.041 6.098a2.62 2.62 0 0 1-2.629-2.609a2.62 2.62 0 0 1 2.629-2.609c1.453 0 2.632 1.169 2.632 2.609c0 1.441-1.179 2.609-2.632 2.609M4.512.079a3.427 3.427 0 1 0 .002 6.854A3.427 3.427 0 0 0 4.512.079m0 6.016a2.589 2.589 0 0 1 0-5.176a2.59 2.59 0 0 1 2.589 2.587a2.59 2.59 0 0 1-2.589 2.589M8.006 9.97L7.1 9.063l-2.56 2.561l-2.561-2.561l-.907.907l2.561 2.561l-2.561 2.559l.907.906l2.561-2.558l2.56 2.558l.906-.906l-2.56-2.559zM17.057.926l-.912-.913l-2.577 2.577L10.992.013l-.911.913l2.576 2.576l-2.576 2.574l.911.912l2.576-2.575l2.577 2.575l.912-.912l-2.576-2.574z"/></svg>
